<?xml version="1.0" standalone="no"?>
<!DOCTYPE svg PUBLIC "-//W3C//DTD SVG 20010904//EN"
 "http://www.w3.org/TR/2001/REC-SVG-20010904/DTD/svg10.dtd">
<svg version="1.0" xmlns="http://www.w3.org/2000/svg"
 width="200.000000pt" height="200.000000pt" viewBox="0 0 200.000000 200.000000"
 preserveAspectRatio="xMidYMid meet">
<metadata>
Created by potrace 1.11, written by Peter Selinger 2001-2013
</metadata>
<g transform="translate(0.000000,200.000000) scale(0.100000,-0.100000)"
fill="#000000" stroke="none">
<path d="M889 1995 c-2 -1 -23 -5 -46 -9 -315 -43 -620 -275 -754 -574 -98
-218 -114 -501 -39 -721 52 -155 122 -271 232 -383 152 -156 320 -246 538
-292 64 -13 298 -15 350 -2 14 3 39 8 55 12 154 30 349 138 473 261 68 67 152
173 152 191 0 5 6 15 14 21 21 18 84 174 107 266 26 104 33 301 13 408 -37
207 -129 382 -279 532 -140 140 -309 233 -505 275 -50 11 -303 24 -311 15z"/>
</g>
</svg>
