<svg 
 xmlns="http://www.w3.org/2000/svg"
 xmlns:xlink="http://www.w3.org/1999/xlink"
 width="33px" height="32px">
<path fill-rule="evenodd"  fill="rgb(98, 126, 234)"
 d="M27.149,11.425 L32.318,11.425 C32.318,11.425 32.582,11.452 32.714,10.893 C32.819,10.441 32.503,10.016 32.503,10.016 L26.041,0.846 C26.041,0.846 25.619,-0.004 24.749,-0.004 C23.905,-0.004 23.562,0.607 23.562,0.607 L17.285,9.803 C17.285,9.803 17.074,10.388 17.179,10.893 C17.285,11.425 17.681,11.425 17.681,11.425 L22.533,11.425 L22.533,20.382 C22.533,20.382 21.584,27.453 18.999,27.453 C18.999,27.453 27.175,27.346 27.175,20.170 L27.149,11.425 ZM6.393,20.595 L1.250,20.595 C1.250,20.595 0.933,20.701 0.854,21.259 C0.801,21.632 0.986,21.871 1.065,21.977 L7.501,31.147 C7.501,31.147 7.922,31.998 8.793,31.998 C9.637,31.998 9.979,31.387 9.979,31.387 L16.256,22.163 C16.256,22.163 16.494,21.791 16.362,21.259 C16.204,20.622 15.861,20.595 15.861,20.595 L11.034,20.595 L11.034,11.584 C11.034,11.584 11.984,4.514 14.568,4.514 C14.568,4.514 6.393,4.620 6.393,11.824 L6.393,20.595 Z"/>
</svg>
